
  <svg
    width="1000"
    height="1000"
    viewBox="0 0 1000 1000"
    xmlns="http://www.w3.org/2000/svg"
  >
    <defs>
      <clipPath id="shape">
        <path fill="currentColor" d="M721.5,605.5Q711,711,605.5,751.5Q500,792,402,744Q304,696,219.5,598Q135,500,203,385.5Q271,271,385.5,209.5Q500,148,591.5,232.5Q683,317,707.5,408.5Q732,500,721.5,605.5Z"></path>
      </clipPath>
    </defs>

    <g  clip-path="url(#shape)">
      <path fill="#038c73" opacity="0.4" d="M721.5,605.5Q711,711,605.5,751.5Q500,792,402,744Q304,696,219.5,598Q135,500,203,385.5Q271,271,385.5,209.5Q500,148,591.5,232.5Q683,317,707.5,408.5Q732,500,721.5,605.5Z" />
    </g>
  </svg>