<svg id="visual" viewBox="0 0 900 600" width="900" height="600" xmlns="http://www.w3.org/2000/svg" xmlns:xlink="http://www.w3.org/1999/xlink" version="1.1"><rect x="0" y="0" width="900" height="600" fill="#232222"></rect><path d="M0 440L25 453.8C50 467.7 100 495.3 150 500.2C200 505 250 487 300 478.7C350 470.3 400 471.7 450 460.7C500 449.7 550 426.3 600 434.7C650 443 700 483 750 499.5C800 516 850 509 875 505.5L900 502L900 601L875 601C850 601 800 601 750 601C700 601 650 601 600 601C550 601 500 601 450 601C400 601 350 601 300 601C250 601 200 601 150 601C100 601 50 601 25 601L0 601Z" fill="#02735E" stroke-linecap="round" stroke-linejoin="miter"></path></svg>